<?xml version="1.0" encoding="UTF-8" standalone="no"?>
<!-- Created with Inkscape (http://www.inkscape.org/) -->

<svg
   xmlns:dc="http://purl.org/dc/elements/1.1/"
   xmlns:cc="http://creativecommons.org/ns#"
   xmlns:rdf="http://www.w3.org/1999/02/22-rdf-syntax-ns#"
   xmlns:svg="http://www.w3.org/2000/svg"
   xmlns="http://www.w3.org/2000/svg"
   xmlns:sodipodi="http://sodipodi.sourceforge.net/DTD/sodipodi-0.dtd"
   xmlns:inkscape="http://www.inkscape.org/namespaces/inkscape"
   width="808.70166"
   height="145.65627"
   version="1.1"
   viewBox="0 0 213.96898 38.538222"
   id="svg4597"
   sodipodi:docname="logo2Colors.svg"
   inkscape:version="0.92.2 5c3e80d, 2017-08-06">
  <defs
     id="defs4601" />
  <sodipodi:namedview
     pagecolor="#ffffff"
     bordercolor="#666666"
     borderopacity="1"
     objecttolerance="10"
     gridtolerance="10"
     guidetolerance="10"
     inkscape:pageopacity="0"
     inkscape:pageshadow="2"
     inkscape:window-width="1920"
     inkscape:window-height="1034"
     id="namedview4599"
     showgrid="false"
     inkscape:zoom="0.81650124"
     inkscape:cx="366.60873"
     inkscape:cy="-271.19526"
     inkscape:window-x="0"
     inkscape:window-y="0"
     inkscape:window-maximized="0"
     inkscape:current-layer="svg4597"
     fit-margin-top="0"
     fit-margin-left="0"
     fit-margin-right="0"
     fit-margin-bottom="0" />
  <metadata
     id="metadata4383">
    <rdf:RDF>
      <cc:Work
         rdf:about="">
        <dc:format>image/svg+xml</dc:format>
        <dc:type
           rdf:resource="http://purl.org/dc/dcmitype/StillImage" />
        <dc:title></dc:title>
      </cc:Work>
    </rdf:RDF>
  </metadata>
  <g
     id="g5785"
     transform="translate(3.549e-6,-55.25821)">
    <g
       transform="translate(-236.35458,-238.26512)"
       id="g4662">
      <g
         transform="translate(236.35462,191.31613)"
         style="font-variant-ligatures:normal;font-variant-caps:normal;font-variant-numeric:normal;font-feature-settings:normal;stroke-width:0.72489452"
         aria-label="CUANTICA"
         id="g4606">
        <path
           d="m 17.230359,117.55456 q -2.605089,-2.22283 -5.804819,-2.22283 -3.0439906,0 -4.9411755,1.93966 -1.8971849,1.93966 -1.8971849,5.0686 0,3.01568 1.8547106,4.96949 1.8405525,1.9255 4.6438558,1.9255 2.505983,0 4.672171,-1.34501 0.679589,-0.42475 1.231755,-0.89196 0.566324,-0.46722 1.175122,-0.99107 v 5.26681 l -0.240688,0.1699 q -1.458284,1.03354 -3.04399,1.4866 -1.698972,0.49553 -3.49705,0.49553 -1.146806,0 -2.3502442,-0.19821 -4.6580136,-0.79286 -7.1781548,-4.60138 -1.854710549,-2.77499 -1.854710549,-6.31451 0,-3.52537 1.868868649,-6.30036 1.8971849,-2.83162 5.0261242,-4.04921 2.067082,-0.82117 4.2757447,-0.82117 0.948593,0 1.939659,0.15574 2.633406,0.41058 5.011967,2.03876 l 0.269003,0.18406 -0.254845,4.79959 z"
           style="font-variant-ligatures:normal;font-variant-caps:normal;font-variant-numeric:normal;font-feature-settings:normal"
           id="path4590"
           inkscape:connector-curvature="0" />
        <path
           d="m 25.342948,111.63647 v 12.78476 q 0,2.32193 1.005224,3.59616 1.019383,1.27423 3.42626,1.27423 2.392718,0 3.397943,-1.27423 1.005225,-1.28839 1.005225,-3.59616 v -12.78476 h 4.445642 v 13.09624 q 0,8.69307 -8.84881,8.69307 -8.820494,0 -8.820494,-8.69307 v -13.09624 z"
           style="font-variant-ligatures:normal;font-variant-caps:normal;font-variant-numeric:normal;font-feature-settings:normal"
           id="path4592"
           inkscape:connector-curvature="0" />
        <path
           d="m 55.074952,132.54798 -2.137873,-4.82791 h -7.192312 l -2.336086,5.18186 h -4.728804 l 10.646888,-22.86532 10.646888,22.86532 h -4.742962 z m -7.602898,-8.70723 h 3.79437 l -1.897185,-4.31822 z"
           style="font-variant-ligatures:normal;font-variant-caps:normal;font-variant-numeric:normal;font-feature-settings:normal"
           id="path4594"
           inkscape:connector-curvature="0" />
        <path
           d="m 62.522108,110.05076 13.322769,13.70504 v -12.11933 h 4.431484 v 22.83701 l -13.30861,-14.27136 v 12.69981 h -4.445643 z"
           style="font-variant-ligatures:normal;font-variant-caps:normal;font-variant-numeric:normal;font-feature-settings:normal"
           id="path4596"
           inkscape:connector-curvature="0" />
        <path
           d="m 92.636381,115.58658 v 17.31535 h -4.431484 v -17.31535 h -5.351761 l 0.89196,-3.95011 h 13.322769 l 0.89196,3.95011 z"
           style="font-variant-ligatures:normal;font-variant-caps:normal;font-variant-numeric:normal;font-feature-settings:normal"
           id="path4598"
           inkscape:connector-curvature="0" />
        <path
           d="m 100.52244,111.63647 h 4.44564 v 21.26546 h -4.44564 z"
           style="font-variant-ligatures:normal;font-variant-caps:normal;font-variant-numeric:normal;font-feature-settings:normal"
           id="path4600"
           inkscape:connector-curvature="0" />
        <path
           d="m 124.77526,117.55456 q -2.60509,-2.22283 -5.80482,-2.22283 -3.04399,0 -4.94118,1.93966 -1.89718,1.93966 -1.89718,5.0686 0,3.01568 1.85471,4.96949 1.84055,1.9255 4.64385,1.9255 2.50599,0 4.67218,-1.34501 0.67959,-0.42475 1.23175,-0.89196 0.56632,-0.46722 1.17512,-0.99107 v 5.26681 l -0.24068,0.1699 q -1.45829,1.03354 -3.044,1.4866 -1.69897,0.49553 -3.49705,0.49553 -1.1468,0 -2.35024,-0.19821 -4.65801,-0.79286 -7.17815,-4.60138 -1.85471,-2.77499 -1.85471,-6.31451 0,-3.52537 1.86886,-6.30036 1.89719,-2.83162 5.02613,-4.04921 2.06708,-0.82117 4.27574,-0.82117 0.9486,0 1.93966,0.15574 2.63341,0.41058 5.01197,2.03876 l 0.269,0.18406 -0.25484,4.79959 z"
           style="font-variant-ligatures:normal;font-variant-caps:normal;font-variant-numeric:normal;font-feature-settings:normal"
           id="path4602"
           inkscape:connector-curvature="0" />
        <path
           d="m 143.95948,132.54798 -2.13788,-4.82791 h -7.19231 l -2.33608,5.18186 h -4.72881 l 10.64689,-22.86532 10.64689,22.86532 h -4.74296 z m -7.6029,-8.70723 h 3.79437 l -1.89719,-4.31822 z"
           style="font-variant-ligatures:normal;font-variant-caps:normal;font-variant-numeric:normal;font-feature-settings:normal"
           id="path4604"
           inkscape:connector-curvature="0" />
      </g>
      <rect
         x="277.83322"
         y="296.08066"
         width="15.425207"
         height="3.9290617"
         ry="0"
         id="rect4608"
         style="fill:#ff6600;stroke-width:2.73975897" />
    </g>
    <g
       id="g4614"
       aria-label="MX"
       style="font-variant-ligatures:normal;font-variant-caps:normal;font-variant-numeric:normal;font-feature-settings:normal;stroke-width:0.72489452"
       transform="translate(7.5656,-46.94899)">
      <path
         inkscape:connector-curvature="0"
         id="path4610"
         style="font-variant-ligatures:normal;font-variant-caps:normal;font-variant-numeric:normal;font-feature-settings:normal"
         d="m 173.37767,125.17161 -4.45981,7.73032 -4.43148,-7.65953 v 7.65953 h -4.44564 v -22.85117 l 8.87712,15.12085 8.87713,-15.12085 v 22.85117 h -4.43148 z" />
      <path
         inkscape:connector-curvature="0"
         id="path4612"
         style="font-variant-ligatures:normal;font-variant-caps:normal;font-variant-numeric:normal;font-feature-settings:normal"
         d="m 180.92393,132.00997 6.34283,-10.20799 -6.1163,-10.16551 h 4.79959 q 0.12743,0.22653 0.66544,1.14681 0.55216,0.92027 1.1468,1.95381 0.6088,1.03355 1.09017,1.86887 0.49554,0.82117 0.5097,0.84949 l 0.22653,0.42474 0.59464,-1.01938 3.05814,-4.94118 0.18406,-0.28316 h 4.71465 l -6.24372,10.10888 6.68262,11.15658 h -4.98365 l -3.52537,-5.98887 q -0.14158,-0.22653 -0.29732,-0.50969 -0.14158,-0.29732 -0.269,-0.55217 -0.12743,0.24069 -0.29732,0.50969 -0.21237,0.35395 -0.31148,0.50969 l -3.68111,6.03135 h -4.84207 z" />
    </g>
    <path
       style="fill:#ff6f00;fill-opacity:1;stroke-width:2.73975921"
       d="m 203.53551,55.25821 v 3.92896 h 6.50452 v 30.6803 h -6.50452 v 3.92896 h 6.50452 3.92896 v -3.92896 -30.6803 -3.92896 h -3.92896 z"
       id="path4616"
       inkscape:connector-curvature="0" />
    <path
       id="path4618"
       d="m 170.21552,55.25821 v 3.92896 H 163.711 v 30.6803 h 6.50452 v 3.92896 h -6.50452 -3.92895 v -3.92896 -30.6803 -3.92896 h 3.92895 z"
       style="fill:#ff6f00;fill-opacity:1;stroke-width:2.73975921"
       inkscape:connector-curvature="0" />
  </g>
  <g
     id="g7286"
     aria-label="CUANTICA"
     style="font-variant-ligatures:normal;font-variant-caps:normal;font-variant-numeric:normal;font-feature-settings:normal;stroke-width:0.72489452"
     transform="translate(4e-5,-41.71567)">
    <path
       inkscape:connector-curvature="0"
       id="path7270"
       style="font-variant-ligatures:normal;font-variant-caps:normal;font-variant-numeric:normal;font-feature-settings:normal"
       d="m 17.230359,117.55456 q -2.605089,-2.22283 -5.804819,-2.22283 -3.0439906,0 -4.9411755,1.93966 -1.8971849,1.93966 -1.8971849,5.0686 0,3.01568 1.8547106,4.96949 1.8405525,1.9255 4.6438558,1.9255 2.505983,0 4.672171,-1.34501 0.679589,-0.42475 1.231755,-0.89196 0.566324,-0.46722 1.175122,-0.99107 v 5.26681 l -0.240688,0.1699 q -1.458284,1.03354 -3.04399,1.4866 -1.698972,0.49553 -3.49705,0.49553 -1.146806,0 -2.3502442,-0.19821 -4.6580136,-0.79286 -7.1781548,-4.60138 -1.854710549,-2.77499 -1.854710549,-6.31451 0,-3.52537 1.868868649,-6.30036 1.8971849,-2.83162 5.0261242,-4.04921 2.067082,-0.82117 4.2757447,-0.82117 0.948593,0 1.939659,0.15574 2.633406,0.41058 5.011967,2.03876 l 0.269003,0.18406 -0.254845,4.79959 z" />
    <path
       inkscape:connector-curvature="0"
       id="path7272"
       style="font-variant-ligatures:normal;font-variant-caps:normal;font-variant-numeric:normal;font-feature-settings:normal"
       d="m 25.342948,111.63647 v 12.78476 q 0,2.32193 1.005224,3.59616 1.019383,1.27423 3.42626,1.27423 2.392718,0 3.397943,-1.27423 1.005225,-1.28839 1.005225,-3.59616 v -12.78476 h 4.445642 v 13.09624 q 0,8.69307 -8.84881,8.69307 -8.820494,0 -8.820494,-8.69307 v -13.09624 z" />
    <path
       inkscape:connector-curvature="0"
       id="path7274"
       style="font-variant-ligatures:normal;font-variant-caps:normal;font-variant-numeric:normal;font-feature-settings:normal"
       d="m 55.074952,132.54798 -2.137873,-4.82791 h -7.192312 l -2.336086,5.18186 h -4.728804 l 10.646888,-22.86532 10.646888,22.86532 h -4.742962 z m -7.602898,-8.70723 h 3.79437 l -1.897185,-4.31822 z" />
    <path
       inkscape:connector-curvature="0"
       id="path7276"
       style="font-variant-ligatures:normal;font-variant-caps:normal;font-variant-numeric:normal;font-feature-settings:normal"
       d="m 62.522108,110.05076 13.322769,13.70504 v -12.11933 h 4.431484 v 22.83701 l -13.30861,-14.27136 v 12.69981 h -4.445643 z" />
    <path
       inkscape:connector-curvature="0"
       id="path7278"
       style="font-variant-ligatures:normal;font-variant-caps:normal;font-variant-numeric:normal;font-feature-settings:normal"
       d="m 92.636381,115.58658 v 17.31535 h -4.431484 v -17.31535 h -5.351761 l 0.89196,-3.95011 h 13.322769 l 0.89196,3.95011 z" />
    <path
       inkscape:connector-curvature="0"
       id="path7280"
       style="font-variant-ligatures:normal;font-variant-caps:normal;font-variant-numeric:normal;font-feature-settings:normal"
       d="m 100.52244,111.63647 h 4.44564 v 21.26546 h -4.44564 z" />
    <path
       inkscape:connector-curvature="0"
       id="path7282"
       style="font-variant-ligatures:normal;font-variant-caps:normal;font-variant-numeric:normal;font-feature-settings:normal"
       d="m 124.77526,117.55456 q -2.60509,-2.22283 -5.80482,-2.22283 -3.04399,0 -4.94118,1.93966 -1.89718,1.93966 -1.89718,5.0686 0,3.01568 1.85471,4.96949 1.84055,1.9255 4.64385,1.9255 2.50599,0 4.67218,-1.34501 0.67959,-0.42475 1.23175,-0.89196 0.56632,-0.46722 1.17512,-0.99107 v 5.26681 l -0.24068,0.1699 q -1.45829,1.03354 -3.044,1.4866 -1.69897,0.49553 -3.49705,0.49553 -1.1468,0 -2.35024,-0.19821 -4.65801,-0.79286 -7.17815,-4.60138 -1.85471,-2.77499 -1.85471,-6.31451 0,-3.52537 1.86886,-6.30036 1.89719,-2.83162 5.02613,-4.04921 2.06708,-0.82117 4.27574,-0.82117 0.9486,0 1.93966,0.15574 2.63341,0.41058 5.01197,2.03876 l 0.269,0.18406 -0.25484,4.79959 z" />
    <path
       inkscape:connector-curvature="0"
       id="path7284"
       style="font-variant-ligatures:normal;font-variant-caps:normal;font-variant-numeric:normal;font-feature-settings:normal"
       d="m 143.95948,132.54798 -2.13788,-4.82791 h -7.19231 l -2.33608,5.18186 h -4.72881 l 10.64689,-22.86532 10.64689,22.86532 h -4.74296 z m -7.6029,-8.70723 h 3.79437 l -1.89719,-4.31822 z" />
  </g>
  <rect
     style="fill:#ef5350;stroke-width:2.73975897;fill-opacity:1"
     id="rect7288"
     ry="0"
     height="3.9290617"
     width="15.425207"
     y="63.048859"
     x="41.478642" />
  <g
     id="g7296"
     aria-label="MX"
     style="font-variant-ligatures:normal;font-variant-caps:normal;font-variant-numeric:normal;font-feature-settings:normal;stroke-width:0.72489452"
     transform="translate(7.5656035,-41.71567)">
    <path
       inkscape:connector-curvature="0"
       id="path7292"
       style="font-variant-ligatures:normal;font-variant-caps:normal;font-variant-numeric:normal;font-feature-settings:normal"
       d="m 173.37767,125.17161 -4.45981,7.73032 -4.43148,-7.65953 v 7.65953 h -4.44564 v -22.85117 l 8.87712,15.12085 8.87713,-15.12085 v 22.85117 h -4.43148 z" />
    <path
       inkscape:connector-curvature="0"
       id="path7294"
       style="font-variant-ligatures:normal;font-variant-caps:normal;font-variant-numeric:normal;font-feature-settings:normal"
       d="m 180.92393,132.00997 6.34283,-10.20799 -6.1163,-10.16551 h 4.79959 q 0.12743,0.22653 0.66544,1.14681 0.55216,0.92027 1.1468,1.95381 0.6088,1.03355 1.09017,1.86887 0.49554,0.82117 0.5097,0.84949 l 0.22653,0.42474 0.59464,-1.01938 3.05814,-4.94118 0.18406,-0.28316 h 4.71465 l -6.24372,10.10888 6.68262,11.15658 h -4.98365 l -3.52537,-5.98887 q -0.14158,-0.22653 -0.29732,-0.50969 -0.14158,-0.29732 -0.269,-0.55217 -0.12743,0.24069 -0.29732,0.50969 -0.21237,0.35395 -0.31148,0.50969 l -3.68111,6.03135 h -4.84207 z" />
  </g>
  <path
     style="fill:#ef5350;fill-opacity:1;stroke-width:2.73975921"
     d="m 203.53551,60.49153 v 3.92896 h 6.50452 v 30.680301 h -6.50452 v 3.92896 h 6.50452 3.92896 V 95.100791 64.42049 60.49153 h -3.92896 z"
     id="path7298"
     inkscape:connector-curvature="0" />
  <path
     id="path7300"
     d="m 170.21552,60.49153 v 3.92896 H 163.711 v 30.680301 h 6.50452 v 3.92896 H 163.711 159.78205 V 95.100791 64.42049 60.49153 h 3.92895 z"
     style="fill:#ef5350;fill-opacity:1;stroke-width:2.73975921"
     inkscape:connector-curvature="0" />
  <g
     transform="translate(4e-5,18.546726)"
     style="font-variant-ligatures:normal;font-variant-caps:normal;font-variant-numeric:normal;font-feature-settings:normal;stroke-width:0.72489452"
     aria-label="CUANTICA"
     id="g7346">
    <path
       d="m 17.230359,117.55456 q -2.605089,-2.22283 -5.804819,-2.22283 -3.0439906,0 -4.9411755,1.93966 -1.8971849,1.93966 -1.8971849,5.0686 0,3.01568 1.8547106,4.96949 1.8405525,1.9255 4.6438558,1.9255 2.505983,0 4.672171,-1.34501 0.679589,-0.42475 1.231755,-0.89196 0.566324,-0.46722 1.175122,-0.99107 v 5.26681 l -0.240688,0.1699 q -1.458284,1.03354 -3.04399,1.4866 -1.698972,0.49553 -3.49705,0.49553 -1.146806,0 -2.3502442,-0.19821 -4.6580136,-0.79286 -7.1781548,-4.60138 -1.854710549,-2.77499 -1.854710549,-6.31451 0,-3.52537 1.868868649,-6.30036 1.8971849,-2.83162 5.0261242,-4.04921 2.067082,-0.82117 4.2757447,-0.82117 0.948593,0 1.939659,0.15574 2.633406,0.41058 5.011967,2.03876 l 0.269003,0.18406 -0.254845,4.79959 z"
       style="font-variant-ligatures:normal;font-variant-caps:normal;font-variant-numeric:normal;font-feature-settings:normal"
       id="path7330"
       inkscape:connector-curvature="0" />
    <path
       d="m 25.342948,111.63647 v 12.78476 q 0,2.32193 1.005224,3.59616 1.019383,1.27423 3.42626,1.27423 2.392718,0 3.397943,-1.27423 1.005225,-1.28839 1.005225,-3.59616 v -12.78476 h 4.445642 v 13.09624 q 0,8.69307 -8.84881,8.69307 -8.820494,0 -8.820494,-8.69307 v -13.09624 z"
       style="font-variant-ligatures:normal;font-variant-caps:normal;font-variant-numeric:normal;font-feature-settings:normal"
       id="path7332"
       inkscape:connector-curvature="0" />
    <path
       d="m 55.074952,132.54798 -2.137873,-4.82791 h -7.192312 l -2.336086,5.18186 h -4.728804 l 10.646888,-22.86532 10.646888,22.86532 h -4.742962 z m -7.602898,-8.70723 h 3.79437 l -1.897185,-4.31822 z"
       style="font-variant-ligatures:normal;font-variant-caps:normal;font-variant-numeric:normal;font-feature-settings:normal"
       id="path7334"
       inkscape:connector-curvature="0" />
    <path
       d="m 62.522108,110.05076 13.322769,13.70504 v -12.11933 h 4.431484 v 22.83701 l -13.30861,-14.27136 v 12.69981 h -4.445643 z"
       style="font-variant-ligatures:normal;font-variant-caps:normal;font-variant-numeric:normal;font-feature-settings:normal"
       id="path7336"
       inkscape:connector-curvature="0" />
    <path
       d="m 92.636381,115.58658 v 17.31535 h -4.431484 v -17.31535 h -5.351761 l 0.89196,-3.95011 h 13.322769 l 0.89196,3.95011 z"
       style="font-variant-ligatures:normal;font-variant-caps:normal;font-variant-numeric:normal;font-feature-settings:normal"
       id="path7338"
       inkscape:connector-curvature="0" />
    <path
       d="m 100.52244,111.63647 h 4.44564 v 21.26546 h -4.44564 z"
       style="font-variant-ligatures:normal;font-variant-caps:normal;font-variant-numeric:normal;font-feature-settings:normal"
       id="path7340"
       inkscape:connector-curvature="0" />
    <path
       d="m 124.77526,117.55456 q -2.60509,-2.22283 -5.80482,-2.22283 -3.04399,0 -4.94118,1.93966 -1.89718,1.93966 -1.89718,5.0686 0,3.01568 1.85471,4.96949 1.84055,1.9255 4.64385,1.9255 2.50599,0 4.67218,-1.34501 0.67959,-0.42475 1.23175,-0.89196 0.56632,-0.46722 1.17512,-0.99107 v 5.26681 l -0.24068,0.1699 q -1.45829,1.03354 -3.044,1.4866 -1.69897,0.49553 -3.49705,0.49553 -1.1468,0 -2.35024,-0.19821 -4.65801,-0.79286 -7.17815,-4.60138 -1.85471,-2.77499 -1.85471,-6.31451 0,-3.52537 1.86886,-6.30036 1.89719,-2.83162 5.02613,-4.04921 2.06708,-0.82117 4.27574,-0.82117 0.9486,0 1.93966,0.15574 2.63341,0.41058 5.01197,2.03876 l 0.269,0.18406 -0.25484,4.79959 z"
       style="font-variant-ligatures:normal;font-variant-caps:normal;font-variant-numeric:normal;font-feature-settings:normal"
       id="path7342"
       inkscape:connector-curvature="0" />
    <path
       d="m 143.95948,132.54798 -2.13788,-4.82791 h -7.19231 l -2.33608,5.18186 h -4.72881 l 10.64689,-22.86532 10.64689,22.86532 h -4.74296 z m -7.6029,-8.70723 h 3.79437 l -1.89719,-4.31822 z"
       style="font-variant-ligatures:normal;font-variant-caps:normal;font-variant-numeric:normal;font-feature-settings:normal"
       id="path7344"
       inkscape:connector-curvature="0" />
  </g>
  <rect
     x="41.478642"
     y="123.31126"
     width="15.425207"
     height="3.9290617"
     ry="0"
     id="rect7348"
     style="fill:#00c853;fill-opacity:1;stroke-width:2.73975897" />
  <g
     transform="translate(7.5656035,18.546726)"
     style="font-variant-ligatures:normal;font-variant-caps:normal;font-variant-numeric:normal;font-feature-settings:normal;stroke-width:0.72489452"
     aria-label="MX"
     id="g7354">
    <path
       d="m 173.37767,125.17161 -4.45981,7.73032 -4.43148,-7.65953 v 7.65953 h -4.44564 v -22.85117 l 8.87712,15.12085 8.87713,-15.12085 v 22.85117 h -4.43148 z"
       style="font-variant-ligatures:normal;font-variant-caps:normal;font-variant-numeric:normal;font-feature-settings:normal"
       id="path7350"
       inkscape:connector-curvature="0" />
    <path
       d="m 180.92393,132.00997 6.34283,-10.20799 -6.1163,-10.16551 h 4.79959 q 0.12743,0.22653 0.66544,1.14681 0.55216,0.92027 1.1468,1.95381 0.6088,1.03355 1.09017,1.86887 0.49554,0.82117 0.5097,0.84949 l 0.22653,0.42474 0.59464,-1.01938 3.05814,-4.94118 0.18406,-0.28316 h 4.71465 l -6.24372,10.10888 6.68262,11.15658 h -4.98365 l -3.52537,-5.98887 q -0.14158,-0.22653 -0.29732,-0.50969 -0.14158,-0.29732 -0.269,-0.55217 -0.12743,0.24069 -0.29732,0.50969 -0.21237,0.35395 -0.31148,0.50969 l -3.68111,6.03135 h -4.84207 z"
       style="font-variant-ligatures:normal;font-variant-caps:normal;font-variant-numeric:normal;font-feature-settings:normal"
       id="path7352"
       inkscape:connector-curvature="0" />
  </g>
  <path
     inkscape:connector-curvature="0"
     id="path7356"
     d="m 203.53551,120.75393 v 3.92896 h 6.50452 v 30.6803 h -6.50452 v 3.92896 h 6.50452 3.92896 v -3.92896 -30.6803 -3.92896 h -3.92896 z"
     style="fill:#00c853;fill-opacity:1;stroke-width:2.73975921" />
  <path
     inkscape:connector-curvature="0"
     style="fill:#00c853;fill-opacity:1;stroke-width:2.73975921"
     d="m 170.21552,120.75393 v 3.92896 H 163.711 v 30.6803 h 6.50452 v 3.92896 h -6.50452 -3.92895 v -3.92896 -30.6803 -3.92896 h 3.92895 z"
     id="path7358" />
  <g
     id="g7376"
     aria-label="CUANTICA"
     style="font-variant-ligatures:normal;font-variant-caps:normal;font-variant-numeric:normal;font-feature-settings:normal;stroke-width:0.72489452"
     transform="translate(4e-5,71.935084)">
    <path
       inkscape:connector-curvature="0"
       id="path7360"
       style="font-variant-ligatures:normal;font-variant-caps:normal;font-variant-numeric:normal;font-feature-settings:normal"
       d="m 17.230359,117.55456 q -2.605089,-2.22283 -5.804819,-2.22283 -3.0439906,0 -4.9411755,1.93966 -1.8971849,1.93966 -1.8971849,5.0686 0,3.01568 1.8547106,4.96949 1.8405525,1.9255 4.6438558,1.9255 2.505983,0 4.672171,-1.34501 0.679589,-0.42475 1.231755,-0.89196 0.566324,-0.46722 1.175122,-0.99107 v 5.26681 l -0.240688,0.1699 q -1.458284,1.03354 -3.04399,1.4866 -1.698972,0.49553 -3.49705,0.49553 -1.146806,0 -2.3502442,-0.19821 -4.6580136,-0.79286 -7.1781548,-4.60138 -1.854710549,-2.77499 -1.854710549,-6.31451 0,-3.52537 1.868868649,-6.30036 1.8971849,-2.83162 5.0261242,-4.04921 2.067082,-0.82117 4.2757447,-0.82117 0.948593,0 1.939659,0.15574 2.633406,0.41058 5.011967,2.03876 l 0.269003,0.18406 -0.254845,4.79959 z" />
    <path
       inkscape:connector-curvature="0"
       id="path7362"
       style="font-variant-ligatures:normal;font-variant-caps:normal;font-variant-numeric:normal;font-feature-settings:normal"
       d="m 25.342948,111.63647 v 12.78476 q 0,2.32193 1.005224,3.59616 1.019383,1.27423 3.42626,1.27423 2.392718,0 3.397943,-1.27423 1.005225,-1.28839 1.005225,-3.59616 v -12.78476 h 4.445642 v 13.09624 q 0,8.69307 -8.84881,8.69307 -8.820494,0 -8.820494,-8.69307 v -13.09624 z" />
    <path
       inkscape:connector-curvature="0"
       id="path7364"
       style="font-variant-ligatures:normal;font-variant-caps:normal;font-variant-numeric:normal;font-feature-settings:normal"
       d="m 55.074952,132.54798 -2.137873,-4.82791 h -7.192312 l -2.336086,5.18186 h -4.728804 l 10.646888,-22.86532 10.646888,22.86532 h -4.742962 z m -7.602898,-8.70723 h 3.79437 l -1.897185,-4.31822 z" />
    <path
       inkscape:connector-curvature="0"
       id="path7366"
       style="font-variant-ligatures:normal;font-variant-caps:normal;font-variant-numeric:normal;font-feature-settings:normal"
       d="m 62.522108,110.05076 13.322769,13.70504 v -12.11933 h 4.431484 v 22.83701 l -13.30861,-14.27136 v 12.69981 h -4.445643 z" />
    <path
       inkscape:connector-curvature="0"
       id="path7368"
       style="font-variant-ligatures:normal;font-variant-caps:normal;font-variant-numeric:normal;font-feature-settings:normal"
       d="m 92.636381,115.58658 v 17.31535 h -4.431484 v -17.31535 h -5.351761 l 0.89196,-3.95011 h 13.322769 l 0.89196,3.95011 z" />
    <path
       inkscape:connector-curvature="0"
       id="path7370"
       style="font-variant-ligatures:normal;font-variant-caps:normal;font-variant-numeric:normal;font-feature-settings:normal"
       d="m 100.52244,111.63647 h 4.44564 v 21.26546 h -4.44564 z" />
    <path
       inkscape:connector-curvature="0"
       id="path7372"
       style="font-variant-ligatures:normal;font-variant-caps:normal;font-variant-numeric:normal;font-feature-settings:normal"
       d="m 124.77526,117.55456 q -2.60509,-2.22283 -5.80482,-2.22283 -3.04399,0 -4.94118,1.93966 -1.89718,1.93966 -1.89718,5.0686 0,3.01568 1.85471,4.96949 1.84055,1.9255 4.64385,1.9255 2.50599,0 4.67218,-1.34501 0.67959,-0.42475 1.23175,-0.89196 0.56632,-0.46722 1.17512,-0.99107 v 5.26681 l -0.24068,0.1699 q -1.45829,1.03354 -3.044,1.4866 -1.69897,0.49553 -3.49705,0.49553 -1.1468,0 -2.35024,-0.19821 -4.65801,-0.79286 -7.17815,-4.60138 -1.85471,-2.77499 -1.85471,-6.31451 0,-3.52537 1.86886,-6.30036 1.89719,-2.83162 5.02613,-4.04921 2.06708,-0.82117 4.27574,-0.82117 0.9486,0 1.93966,0.15574 2.63341,0.41058 5.01197,2.03876 l 0.269,0.18406 -0.25484,4.79959 z" />
    <path
       inkscape:connector-curvature="0"
       id="path7374"
       style="font-variant-ligatures:normal;font-variant-caps:normal;font-variant-numeric:normal;font-feature-settings:normal"
       d="m 143.95948,132.54798 -2.13788,-4.82791 h -7.19231 l -2.33608,5.18186 h -4.72881 l 10.64689,-22.86532 10.64689,22.86532 h -4.74296 z m -7.6029,-8.70723 h 3.79437 l -1.89719,-4.31822 z" />
  </g>
  <rect
     style="fill:#0091ea;fill-opacity:1;stroke-width:2.73975897"
     id="rect7378"
     ry="0"
     height="3.9290617"
     width="15.425207"
     y="176.69962"
     x="41.478642" />
  <g
     id="g7384"
     aria-label="MX"
     style="font-variant-ligatures:normal;font-variant-caps:normal;font-variant-numeric:normal;font-feature-settings:normal;stroke-width:0.72489452"
     transform="translate(7.5656035,71.935084)">
    <path
       inkscape:connector-curvature="0"
       id="path7380"
       style="font-variant-ligatures:normal;font-variant-caps:normal;font-variant-numeric:normal;font-feature-settings:normal"
       d="m 173.37767,125.17161 -4.45981,7.73032 -4.43148,-7.65953 v 7.65953 h -4.44564 v -22.85117 l 8.87712,15.12085 8.87713,-15.12085 v 22.85117 h -4.43148 z" />
    <path
       inkscape:connector-curvature="0"
       id="path7382"
       style="font-variant-ligatures:normal;font-variant-caps:normal;font-variant-numeric:normal;font-feature-settings:normal"
       d="m 180.92393,132.00997 6.34283,-10.20799 -6.1163,-10.16551 h 4.79959 q 0.12743,0.22653 0.66544,1.14681 0.55216,0.92027 1.1468,1.95381 0.6088,1.03355 1.09017,1.86887 0.49554,0.82117 0.5097,0.84949 l 0.22653,0.42474 0.59464,-1.01938 3.05814,-4.94118 0.18406,-0.28316 h 4.71465 l -6.24372,10.10888 6.68262,11.15658 h -4.98365 l -3.52537,-5.98887 q -0.14158,-0.22653 -0.29732,-0.50969 -0.14158,-0.29732 -0.269,-0.55217 -0.12743,0.24069 -0.29732,0.50969 -0.21237,0.35395 -0.31148,0.50969 l -3.68111,6.03135 h -4.84207 z" />
  </g>
  <path
     style="fill:#0091ea;fill-opacity:1;stroke-width:2.73975921"
     d="m 203.53551,174.14229 v 3.92896 h 6.50452 v 30.6803 h -6.50452 v 3.92896 h 6.50452 3.92896 v -3.92896 -30.6803 -3.92896 h -3.92896 z"
     id="path7386"
     inkscape:connector-curvature="0" />
  <path
     id="path7388"
     d="m 170.21552,174.14229 v 3.92896 H 163.711 v 30.6803 h 6.50452 v 3.92896 h -6.50452 -3.92895 v -3.92896 -30.6803 -3.92896 h 3.92895 z"
     style="fill:#0091ea;fill-opacity:1;stroke-width:2.73975921"
     inkscape:connector-curvature="0" />
</svg>
